<svg width="414" height="267" viewBox="0 0 414 267" fill="none" xmlns="http://www.w3.org/2000/svg">
<path d="M0 0H414V267H0V0Z" fill="#CAEDFF"/>
<path d="M168.28 170H166.44V155.68H168.68L175.64 166.82H175.72L175.64 164.06V155.68H177.48V170H175.56L168.28 158.32H168.2L168.28 161.08V170ZM179.486 165.1C179.486 163.593 179.959 162.347 180.906 161.36C181.866 160.373 183.072 159.88 184.526 159.88C185.979 159.88 187.179 160.373 188.126 161.36C189.086 162.347 189.566 163.593 189.566 165.1C189.566 166.62 189.086 167.867 188.126 168.84C187.179 169.827 185.979 170.32 184.526 170.32C183.072 170.32 181.866 169.827 180.906 168.84C179.959 167.853 179.486 166.607 179.486 165.1ZM181.326 165.1C181.326 166.153 181.632 167.007 182.246 167.66C182.859 168.313 183.619 168.64 184.526 168.64C185.432 168.64 186.192 168.313 186.806 167.66C187.419 167.007 187.726 166.153 187.726 165.1C187.726 164.06 187.419 163.213 186.806 162.56C186.179 161.893 185.419 161.56 184.526 161.56C183.632 161.56 182.872 161.893 182.246 162.56C181.632 163.213 181.326 164.06 181.326 165.1ZM197.792 170H195.952V155.68H197.792V170ZM202.198 170H200.358V160.2H202.118V161.56H202.198C202.478 161.08 202.905 160.68 203.478 160.36C204.065 160.04 204.645 159.88 205.218 159.88C205.938 159.88 206.572 160.047 207.118 160.38C207.665 160.713 208.065 161.173 208.318 161.76C209.132 160.507 210.258 159.88 211.698 159.88C212.832 159.88 213.705 160.227 214.318 160.92C214.932 161.613 215.238 162.6 215.238 163.88V170H213.398V164.16C213.398 163.24 213.232 162.58 212.898 162.18C212.565 161.767 212.005 161.56 211.218 161.56C210.512 161.56 209.918 161.86 209.438 162.46C208.958 163.06 208.718 163.767 208.718 164.58V170H206.878V164.16C206.878 163.24 206.712 162.58 206.378 162.18C206.045 161.767 205.485 161.56 204.698 161.56C203.992 161.56 203.398 161.86 202.918 162.46C202.438 163.06 202.198 163.767 202.198 164.58V170ZM218.632 167C218.632 167.48 218.832 167.88 219.232 168.2C219.645 168.52 220.125 168.68 220.672 168.68C221.445 168.68 222.132 168.393 222.732 167.82C223.345 167.247 223.652 166.573 223.652 165.8C223.079 165.347 222.279 165.12 221.252 165.12C220.505 165.12 219.879 165.3 219.372 165.66C218.879 166.02 218.632 166.467 218.632 167ZM221.012 159.88C222.372 159.88 223.445 160.247 224.232 160.98C225.019 161.7 225.412 162.693 225.412 163.96V170H223.652V168.64H223.572C222.812 169.76 221.799 170.32 220.532 170.32C219.452 170.32 218.545 170 217.812 169.36C217.092 168.72 216.732 167.92 216.732 166.96C216.732 165.947 217.112 165.14 217.872 164.54C218.645 163.94 219.672 163.64 220.952 163.64C222.045 163.64 222.945 163.84 223.652 164.24V163.82C223.652 163.18 223.399 162.64 222.892 162.2C222.385 161.747 221.792 161.52 221.112 161.52C220.085 161.52 219.272 161.953 218.672 162.82L217.052 161.8C217.945 160.52 219.265 159.88 221.012 159.88ZM231.79 168.64C232.696 168.64 233.436 168.313 234.01 167.66C234.61 167.007 234.91 166.153 234.91 165.1C234.91 164.073 234.61 163.227 234.01 162.56C233.423 161.893 232.683 161.56 231.79 161.56C230.91 161.56 230.17 161.893 229.57 162.56C228.97 163.227 228.67 164.073 228.67 165.1C228.67 166.14 228.97 166.987 229.57 167.64C230.17 168.307 230.91 168.64 231.79 168.64ZM231.73 174.64C231.183 174.64 230.67 174.567 230.19 174.42C229.71 174.287 229.27 174.093 228.87 173.84C228.483 173.587 228.15 173.287 227.87 172.94C227.59 172.593 227.376 172.207 227.23 171.78L228.97 171.06C229.17 171.633 229.516 172.093 230.01 172.44C230.503 172.787 231.076 172.96 231.73 172.96C232.73 172.96 233.51 172.66 234.07 172.06C234.63 171.46 234.91 170.633 234.91 169.58V168.64H234.83C234.483 169.16 234.01 169.573 233.41 169.88C232.823 170.173 232.183 170.32 231.49 170.32C230.21 170.32 229.11 169.82 228.19 168.82C227.283 167.793 226.83 166.553 226.83 165.1C226.83 163.647 227.283 162.413 228.19 161.4C229.11 160.387 230.21 159.88 231.49 159.88C232.183 159.88 232.823 160.033 233.41 160.34C234.01 160.633 234.483 161.04 234.83 161.56H234.91V160.2H236.67V169.58C236.67 171.153 236.223 172.387 235.33 173.28C234.423 174.187 233.223 174.64 231.73 174.64ZM243.215 170.32C241.775 170.32 240.589 169.827 239.655 168.84C238.722 167.853 238.255 166.607 238.255 165.1C238.255 163.607 238.709 162.367 239.615 161.38C240.522 160.38 241.682 159.88 243.095 159.88C244.549 159.88 245.702 160.353 246.555 161.3C247.422 162.233 247.855 163.547 247.855 165.24L247.835 165.44H240.135C240.162 166.4 240.482 167.173 241.095 167.76C241.709 168.347 242.442 168.64 243.295 168.64C244.469 168.64 245.389 168.053 246.055 166.88L247.695 167.68C247.255 168.507 246.642 169.153 245.855 169.62C245.082 170.087 244.202 170.32 243.215 170.32ZM240.275 163.92H245.895C245.842 163.24 245.562 162.68 245.055 162.24C244.562 161.787 243.895 161.56 243.055 161.56C242.362 161.56 241.762 161.773 241.255 162.2C240.762 162.627 240.435 163.2 240.275 163.92Z" fill="black"/>
<path d="M227.125 129.594L222.542 125.01V99.4583H196.99L192.406 94.875H222.542C223.802 94.875 224.882 95.3234 225.78 96.2202C226.677 97.1185 227.125 98.1979 227.125 99.4583V129.594ZM224.375 139.792L220.708 136.125H190.458C189.198 136.125 188.119 135.677 187.22 134.78C186.324 133.881 185.875 132.802 185.875 131.542V101.292L182.208 97.625L185.417 94.4166L227.583 136.583L224.375 139.792ZM192.75 126.958L199.625 117.792L204.781 124.667L206.672 122.146L190.458 105.932V131.542H216.068L211.485 126.958H192.75Z" fill="#1572A1"/>
</svg>
