<svg width="28" height="28" viewBox="0 0 28 28" fill="none" xmlns="http://www.w3.org/2000/svg">
<path d="M23.5549 16.4033L22.2366 14.21C21.9449 13.7317 21.6883 12.81 21.6883 12.25V10.0683C21.6883 5.83333 18.2466 2.39166 14.0233 2.39166C9.78829 2.40333 6.34662 5.83333 6.34662 10.0683V12.2383C6.34662 12.7983 6.08995 13.72 5.80995 14.1983L4.49162 16.3917C3.98995 17.2433 3.87329 18.2117 4.18829 19.0517C4.50328 19.9033 5.21495 20.58 6.14828 20.8833C7.40828 21.3033 8.67995 21.6067 9.97495 21.8283C10.1033 21.8517 10.2316 21.8633 10.36 21.8867C10.5233 21.91 10.6983 21.9333 10.8733 21.9567C11.1766 22.0033 11.4799 22.0383 11.795 22.0617C12.53 22.1317 13.2766 22.1667 14.0233 22.1667C14.7583 22.1667 15.4933 22.1317 16.2166 22.0617C16.485 22.0383 16.7533 22.015 17.01 21.98C17.22 21.9567 17.4299 21.9333 17.6399 21.8983C17.7683 21.8867 17.8966 21.8633 18.025 21.84C19.3316 21.63 20.6266 21.3033 21.8866 20.8833C22.785 20.58 23.4733 19.9033 23.7999 19.04C24.1266 18.165 24.0333 17.2083 23.5549 16.4033ZM14.875 11.6667C14.875 12.1567 14.4783 12.5533 13.9883 12.5533C13.4983 12.5533 13.1016 12.1567 13.1016 11.6667V8.05C13.1016 7.56 13.4983 7.16333 13.9883 7.16333C14.4783 7.16333 14.875 7.56 14.875 8.05V11.6667Z" fill="#292D32"/>
<path d="M17.3016 23.345C16.8116 24.6983 15.5166 25.6667 14 25.6667C13.0783 25.6667 12.1683 25.2933 11.5266 24.6283C11.1533 24.2783 10.8733 23.8117 10.71 23.3333C10.8616 23.3567 11.0133 23.3683 11.1766 23.3917C11.445 23.4267 11.725 23.4617 12.005 23.485C12.67 23.5433 13.3466 23.5783 14.0233 23.5783C14.6883 23.5783 15.3533 23.5433 16.0066 23.485C16.2516 23.4617 16.4966 23.45 16.73 23.415C16.9166 23.3917 17.1033 23.3683 17.3016 23.345Z" fill="#292D32"/>
<circle cx="23" cy="10" r="4.5" fill="#1572A1" stroke="#FEFEFE"/>
<path d="M22.3738 8.264V11H22.0058V8.72L21.4738 8.952L21.3338 8.64L22.1378 8.264H22.3738ZM24.652 10.648V11H22.908V10.632L23.616 9.916C23.8534 9.67333 24.0174 9.492 24.108 9.372C24.1987 9.24933 24.244 9.12133 24.244 8.988C24.244 8.868 24.1974 8.76533 24.104 8.68C24.0107 8.59467 23.8907 8.552 23.744 8.552C23.6187 8.552 23.5107 8.58933 23.42 8.664C23.3294 8.73867 23.2707 8.82933 23.244 8.936L22.908 8.8C22.9614 8.632 23.064 8.49067 23.216 8.376C23.368 8.25867 23.5467 8.2 23.752 8.2C24 8.2 24.2067 8.276 24.372 8.428C24.5374 8.58 24.62 8.76667 24.62 8.988C24.62 9.252 24.4747 9.53733 24.184 9.844L23.384 10.648H24.652Z" fill="white"/>
</svg>
