<svg width="33" height="29" viewBox="0 0 33 29" fill="none" xmlns="http://www.w3.org/2000/svg">
<path d="M0 0H33L16.9024 14.5L0 29V0Z" fill="#FF4C4C"/>
<path d="M12.0333 7.66831L5.7 4.92915V4.17706C5.7 3.85248 5.43083 3.58331 5.10625 3.58331C4.78166 3.58331 4.5125 3.85248 4.5125 4.17706V18.8229C4.5125 19.1475 4.78166 19.4166 5.10625 19.4166C5.43083 19.4166 5.7 19.1475 5.7 18.8229V15.6879L12.2075 12.4737C12.2075 12.4737 12.2075 12.4737 12.2154 12.4737C13.5296 11.7929 14.2342 10.9141 14.1946 9.9879C14.155 9.06165 13.3871 8.23831 12.0333 7.66831Z" fill="#FEFEFE"/>
<path d="M7.91667 7.54169V9.91669" stroke="#FF4C4D" stroke-linecap="round" stroke-linejoin="round"/>
<path d="M7.91667 12.6479V12.7271" stroke="#FF4C4D" stroke-linecap="round" stroke-linejoin="round"/>
</svg>
